<?xml version="1.0" encoding="iso-8859-1"?>
<!-- Generator: Adobe Illustrator 19.0.0, SVG Export Plug-In . SVG Version: 6.00 Build 0)  -->
<svg version="1.1" id="Capa_1" xmlns="http://www.w3.org/2000/svg" xmlns:xlink="http://www.w3.org/1999/xlink" x="0px" y="0px"
	 viewBox="0 0 480.008 480.008" style="enable-background:new 0 0 480.008 480.008;" xml:space="preserve">
<g>
	<g>
		<g>
			<path d="M240.005,448.004c22.481,0.097,43.34-11.695,54.848-31.008c2.366-3.732,1.259-8.674-2.473-11.04
				c-3.732-2.366-8.674-1.259-11.04,2.473c-0.063,0.1-0.124,0.201-0.183,0.303c-8.635,14.491-24.284,23.34-41.152,23.272
				c-4.418,0-8,3.582-8,8S235.587,448.004,240.005,448.004z"/>
			<path d="M479.381,380.9l-63.376-150.496v-46.4c0-4.418-3.582-8-8-8h-128.8c-3.236-15.698-15.502-27.964-31.2-31.2v-81.44
				c27.517-3.992,47.947-27.555,48-55.36c0-4.418-3.582-8-8-8h-96c-4.418,0-8,3.582-8,8c0.053,27.805,20.483,51.367,48,55.36v81.44
				c-15.698,3.236-27.964,15.502-31.2,31.2h-128.8c-4.418,0-8,3.582-8,8v46.4L0.629,380.9c-1.714,4.072,0.197,8.763,4.269,10.477
				c0.983,0.414,2.04,0.627,3.107,0.627h144c0,48.601,39.399,88,88,88s88-39.399,88-88h144c4.418,0.001,8.001-3.579,8.003-7.997
				C480.008,382.94,479.795,381.883,479.381,380.9z M200.805,16.004h78.4c-4.396,21.65-25.51,35.636-47.16,31.24
				C216.304,44.047,204.001,31.745,200.805,16.004z M240.005,160.004c10.168,0.012,19.229,6.418,22.632,16h-45.264
				C220.776,166.422,229.837,160.016,240.005,160.004z M80.005,192.004h320v32h-320V192.004z M240.005,464.004
				c-39.746-0.044-71.956-32.254-72-72h144C311.961,431.75,279.751,463.96,240.005,464.004z M20.053,376.004l57.264-136h325.376
				l57.264,136H20.053z"/>
		</g>
	</g>
</g>
<g>
</g>
<g>
</g>
<g>
</g>
<g>
</g>
<g>
</g>
<g>
</g>
<g>
</g>
<g>
</g>
<g>
</g>
<g>
</g>
<g>
</g>
<g>
</g>
<g>
</g>
<g>
</g>
<g>
</g>
</svg>
