<svg xmlns="http://www.w3.org/2000/svg" width="498" height="498" viewBox="0 0 498 498">
  <path d="M249,0.084 C148.304716,0.084 57.5246123,60.7415895 18.9905689,153.772057 C-19.5434745,246.802524 1.75721953,353.884972 72.96011,425.086718 C144.163001,496.288465 251.245791,517.587438 344.275639,479.0519 C437.305487,440.516362 497.96,349.735284 497.96,249.04 C497.803489,111.608718 386.431285,0.238303369 249,0.084 Z M249,484 C119.235175,484 14.04,378.804825 14.04,249.04 C14.04,119.275175 119.235175,14.08 249,14.08 C378.764825,14.08 483.96,119.275175 483.96,249.04 C483.81451,378.744513 378.704513,483.85451 249,484 Z"/>
  <path d="M389.24,92.772 C389.18,92.724 389.12,92.676 389.064,92.624 C374.762402,79.8006935 358.775911,68.9914087 341.548,60.496 C338.924,59.204 336.264,57.98 333.584,56.796 C333.288,56.664 332.996,56.524 332.7,56.396 C330.192,55.3 327.652,54.272 325.1,53.276 C324.612,53.088 324.128,52.876 323.64,52.7 C321.216,51.776 318.76,50.908 316.292,50.072 C315.652,49.852 315.008,49.628 314.364,49.416 C312.012,48.644 309.64,47.924 307.248,47.232 C306.448,47.004 305.648,46.772 304.848,46.552 C302.581333,45.928 300.297333,45.34 297.996,44.788 C297.032,44.552 296.064,44.332 295.096,44.116 C292.936,43.628 290.764,43.172 288.58,42.748 C287.404,42.524 286.22,42.32 285.036,42.116 C283.036,41.764 281.008,41.424 278.972,41.132 C277.52,40.92 276.064,40.732 274.604,40.572 C272.8,40.352 271.004,40.12 269.184,39.948 C267.28,39.764 265.368,39.644 263.456,39.512 C262.036,39.412 260.624,39.284 259.2,39.216 C255.808,39.052 252.4,38.956 248.996,38.956 C245.592,38.956 242.196,39.052 238.792,39.216 C237.368,39.284 235.956,39.412 234.536,39.512 C232.624,39.644 230.712,39.764 228.808,39.948 C226.992,40.12 225.208,40.348 223.388,40.572 C221.928,40.752 220.472,40.92 219.02,41.132 C216.984,41.424 214.968,41.764 212.952,42.116 C211.772,42.32 210.588,42.516 209.412,42.748 C207.228,43.1666667 205.056,43.6226667 202.896,44.116 C201.928,44.332 200.961333,44.556 199.996,44.788 C197.694667,45.3373333 195.410667,45.9253333 193.144,46.552 C192.344,46.772 191.544,47.004 190.744,47.232 C188.344,47.924 185.98,48.644 183.628,49.416 C182.984,49.628 182.34,49.852 181.7,50.072 C179.232,50.908 176.78,51.776 174.352,52.7 C173.864,52.888 173.38,53.1 172.892,53.276 C170.336,54.276 167.796,55.3 165.292,56.396 C164.992,56.524 164.696,56.668 164.4,56.796 C161.72,57.996 159.06,59.196 156.44,60.492 C139.212089,68.9874087 123.225598,79.7966935 108.924,92.62 C108.868,92.672 108.808,92.72 108.748,92.768 C51.1805677,144.349385 26.6092487,223.389164 44.7861066,298.51739 C62.9629645,373.645616 120.948137,432.711309 195.728,452.272 C195.832,452.296 195.932,452.332 196.036,452.36 C198.964,453.12 201.928,453.8 204.908,454.436 C205.436,454.552 205.956,454.692 206.484,454.804 C208.848,455.288 211.24,455.688 213.632,456.096 C214.756,456.284 215.868,456.524 216.996,456.696 C218.304,456.896 219.632,457.024 220.948,457.204 C239.553323,459.769317 258.422677,459.769317 277.028,457.204 C278.344,457.024 279.672,456.896 280.98,456.696 C282.108,456.524 283.22,456.296 284.344,456.096 C286.744,455.696 289.144,455.296 291.492,454.804 C292.02,454.692 292.54,454.552 293.068,454.436 C296.048,453.8 299.012,453.12 301.94,452.36 C302.044,452.332 302.144,452.296 302.248,452.272 C377.028034,432.713559 435.014721,373.650033 453.194044,298.522818 C471.373367,223.395604 446.805097,144.355386 389.24,92.772 L389.24,92.772 Z M122.744,99.172 C124.496,97.692 126.276,96.264 128.072,94.852 C128.628,94.416 129.176,93.976 129.736,93.544 C131.488,92.196 133.268,90.888 135.06,89.604 C135.68,89.16 136.296,88.716 136.92,88.284 C138.717333,87.0226667 140.534667,85.7973333 142.372,84.608 C142.998667,84.2 143.628,83.8 144.26,83.408 C146.14,82.208 148.036,81.048 149.952,79.924 C150.524,79.588 151.104,79.26 151.68,78.928 C153.68,77.772 155.728,76.636 157.78,75.552 L159.012,74.92 C171.118629,68.6331356 183.850848,63.6324853 197,60 C197.376,59.896 197.744,59.78 198.124,59.68 C200.252,59.104 202.396,58.592 204.548,58.08 C205.392,57.88 206.236,57.68 207.088,57.492 C209,57.072 210.924,56.692 212.852,56.332 C214,56.116 215.148,55.908 216.304,55.712 C218.042667,55.416 219.786667,55.1493333 221.536,54.912 C222.964,54.712 224.404,54.536 225.84,54.364 C227.384,54.18 228.924,53.996 230.472,53.848 C232.296,53.68 234.132,53.552 235.972,53.448 C237.172,53.364 238.408,53.26 239.636,53.204 C242.74,53.056 245.86,52.964 249.004,52.964 C252.148,52.964 255.268,53.056 258.372,53.204 C259.6,53.26 260.816,53.364 262.036,53.448 C263.876,53.568 265.712,53.696 267.536,53.848 C269.084,53.996 270.624,54.18 272.168,54.364 C273.604,54.536 275.044,54.712 276.472,54.912 C278.221333,55.16 279.965333,55.4266667 281.704,55.712 C282.86,55.908 284.008,56.112 285.156,56.332 C287.084,56.692 289.008,57.072 290.92,57.492 C291.772,57.676 292.616,57.892 293.46,58.08 C295.612,58.58 297.756,59.092 299.884,59.68 C300.264,59.78 300.632,59.896 301.008,60 C314.160485,63.6252887 326.896739,68.619241 339.008,74.9 L340.24,75.532 C342.292,76.616 344.324,77.752 346.34,78.908 C346.916,79.24 347.496,79.568 348.068,79.904 C349.984,81.028 351.88,82.196 353.76,83.388 C354.392,83.788 355.021333,84.188 355.648,84.588 C357.485333,85.78 359.302667,87.0053333 361.1,88.264 C361.724,88.696 362.34,89.14 362.96,89.584 C364.752,90.868 366.532,92.176 368.284,93.524 C368.844,93.956 369.392,94.396 369.948,94.832 C371.744,96.244 373.524,97.672 375.276,99.152 L375.596,99.424 L317.296,198.552 L180.704,198.552 L122.424,99.44 L122.744,99.172 Z M320.06,431.752 C317.857333,432.616 315.642667,433.436 313.416,434.212 C312.578667,434.502667 311.74,434.788 310.9,435.068 C308.892,435.74 306.874667,436.38 304.848,436.988 C303.712,437.328 302.564,437.648 301.416,437.964 C299.644,438.46 297.864,438.94 296.08,439.384 C294.636,439.744 293.176,440.068 291.72,440.392 C290.176,440.74 288.628,441.088 287.076,441.396 C285.36,441.736 283.628,442.028 281.876,442.324 C280.52,442.552 279.164,442.8 277.8,443 C275.856,443.288 273.896,443.52 271.936,443.748 C270.736,443.888 269.536,444.056 268.336,444.172 C266.14,444.388 263.936,444.536 261.708,444.68 C260.704,444.744 259.708,444.84 258.708,444.892 C255.484,445.048 252.244,445.136 248.984,445.136 C245.724,445.136 242.484,445.048 239.26,444.892 C238.256,444.84 237.26,444.744 236.26,444.68 C234.044,444.536 231.828,444.388 229.632,444.172 C228.432,444.056 227.232,443.888 226.032,443.748 C224.072,443.52 222.112,443.288 220.168,443 C218.804,442.8 217.448,442.552 216.092,442.324 C214.36,442.028 212.628,441.736 210.892,441.396 C209.34,441.088 207.792,440.74 206.248,440.392 C204.792,440.068 203.332,439.744 201.888,439.384 C200.1,438.94 198.324,438.46 196.552,437.964 C195.404,437.648 194.26,437.328 193.12,436.988 C191.096,436.382667 189.078667,435.742667 187.068,435.068 C186.228,434.788 185.389333,434.502667 184.552,434.212 C182.328,433.436 180.113333,432.617333 177.908,431.756 L176.912,431.356 L192.912,377.856 L305.072,377.856 L321.072,431.356 L320.06,431.752 Z M333.988,425.752 L317,368.852 C316.112954,365.887822 313.386059,363.856879 310.292,363.856 L187.716,363.856 C184.618982,363.853342 181.887894,365.884986 181,368.852 L164.004,425.74 C106.392605,398.071753 65.898965,344.040995 55.5126123,280.979688 C45.1262596,217.918381 66.1530429,153.755058 111.848,109.072 L170.648,209.096 C171.904252,211.237402 174.201306,212.552614 176.684,212.552 L321.284,212.552 C323.766694,212.552614 326.063748,211.237402 327.32,209.096 L386.12,109.072 C431.814403,153.756197 452.839939,217.920419 442.45197,280.981866 C432.064001,344.043313 391.568597,398.07333 333.956,425.74 L333.988,425.752 Z"/>
  <path d="M249 173.12C273.079615 173.12 292.6 153.599615 292.6 129.52 292.6 105.440385 273.079615 85.92 249 85.92 224.920385 85.92 205.4 105.440385 205.4 129.52 205.424254 153.589562 224.930438 173.095746 249 173.12L249 173.12zM249 99.92C265.347629 99.92 278.6 113.172371 278.6 129.52 278.6 145.867629 265.347629 159.12 249 159.12 232.652371 159.12 219.4 145.867629 219.4 129.52 219.415432 113.17812 232.658122 99.9336405 249 99.916L249 99.92zM314.451999 168.948001C316.308841 168.949062 318.089935 168.211905 319.40292 166.89892 320.715905 165.585935 321.453062 163.804841 321.451999 161.948L321.451999 136.568C321.451999 132.702007 318.317993 129.568 314.451999 129.568 310.586007 129.568 307.451999 132.702007 307.451999 136.568L307.451999 161.948C307.450938 163.804841 308.188095 165.585935 309.50108 166.89892 310.814065 168.211905 312.595159 168.949062 314.451999 168.948001L314.451999 168.948001zM190.548 161.948L190.548 136.568C190.548 132.702007 187.413993 129.568 183.548 129.568 179.682007 129.568 176.548 132.702007 176.548 136.568L176.548 161.948C176.548 165.813993 179.682007 168.948 183.548 168.948 187.413993 168.948 190.548 165.813993 190.548 161.948L190.548 161.948zM269.92 404.204L228.08 404.204C224.214007 404.204 221.08 407.338007 221.08 411.204 221.08 415.069993 224.214007 418.204 228.08 418.204L269.92 418.204C273.785993 418.204 276.92 415.069993 276.92 411.204 276.92 407.338007 273.785993 404.204 269.92 404.204L269.92 404.204z"/>
</svg>
