<svg xmlns="http://www.w3.org/2000/svg" width="184" height="88" viewBox="0 0 184 88">
  <g fill="none">
    <g transform="translate(106)">
      <polygon fill="#2196F3" points="0 0 7.104 79.2 39 88 70.885 79.206 78 0"/>
      <polygon fill="#FAFAFA" points="62.753 26.124 61.859 36.119 59.158 66.081 39 71.622 38.983 71.628 18.837 66.081 17.431 50.412 27.301 50.412 28.035 58.539 38.989 61.478 38.994 61.473 49.965 58.534 51.46 44.992 16.958 45.086 15.98 35.826 52.288 35.4 53.022 25.488 15.008 25.593 14.368 16.372 39 16.372 63.632 16.372"/>
    </g>
    <path fill="#4285F4" d="M87,44.8739726 C87,41.9052838 86.7532517,38.9205479 86.2268554,36 L44,36 L44,52.8172211 L68.1813313,52.8172211 C67.1778883,58.2410959 63.9537108,63.0391389 59.2325937,66.0880626 L59.2325937,77 L73.6591431,77 C82.130834,69.3937378 87,58.1608611 87,44.8739726 Z"/>
    <path fill="#34A853" d="M44.6147309,88 C56.5708215,88 66.6536827,84.1659091 74,77.5477273 L59.7145892,66.7295455 C55.740085,69.3704545 50.6090652,70.8659091 44.6310198,70.8659091 C33.065864,70.8659091 23.259915,63.2454545 19.7415014,53 L5,53 L5,64.1522727 C12.5254958,78.7727273 27.8533994,88 44.6147309,88 Z"/>
    <path fill="#FBBC04" d="M19,52.8138298 C17.1851697,47.4202128 17.1851697,41.5797872 19,36.1861702 L19,25 L4.60871387,25 C-1.53623796,37.2712766 -1.53623796,51.7287234 4.60871387,64 L19,52.8138298 L19,52.8138298 Z"/>
    <path fill="#EA4335" d="M44.4563837,17.1277954 C50.7512344,17.0323922 56.8351752,19.3538707 61.3940748,23.6152149 L74,11.260497 C66.0178697,3.91444846 55.4237009,-0.124288165 44.4563837,0.00291613837 C27.7620503,0.00291613837 12.495415,9.22522811 5,23.853723 L19.6663532,35 C23.1544792,24.7441531 32.9374559,17.1277954 44.4563837,17.1277954 Z"/>
  </g>
</svg>
