<svg xmlns="http://www.w3.org/2000/svg" width="57" height="57" viewBox="0 0 57 57">
  <g fill="none" fill-rule="evenodd" stroke="#000" stroke-linecap="round" stroke-linejoin="round" stroke-width="2" transform="translate(.5 .5)">
    <polyline points="1 55 1 1 55 1"/>
    <path d="M21.665,50.89 L1,1 M1,1 L50.89,21.664 M44,44 L1,1 M8.02,17.96 C7.76,17.27 7.281,16.66 6.64,16.231 C5.27,15.31 3.46,15.441 2.22,16.531 C1.47,17.2 1.05,18.11 1,19.05 C0.99,19.191 0.99,19.321 1,19.45 M12.57,28.91 C12.429,28.42 12.24,27.94 11.98,27.49 C11.98,27.48 11.969,27.48 11.969,27.469 C11.919,27.389 11.879,27.309 11.82,27.23 C10.45,25.089 7.849,24.07 5.38,24.719 C2.92,25.36 1.15,27.51 1,30.06 C0.99,30.26 0.99,30.46 1,30.661 M1,39.49 C2.65,36.01 6.3,33.82 10.25,34.11 C12.27,34.259 14.13,35.03 15.61,36.259"/>
    <path d="M13.976,13.982 C13.472,13.444 12.795,13.064 12.039,12.913 C10.421,12.586 8.799,13.4 8.07,14.881 C7.633,15.787 7.593,16.789 7.907,17.676 C7.952,17.809 8.002,17.93 8.06,18.046 M22.37,22.357 C22.053,21.959 21.694,21.587 21.282,21.271 C21.278,21.262 21.268,21.267 21.264,21.257 C21.187,21.2 21.119,21.143 21.034,21.093 C18.95,19.64 16.157,19.693 14.124,21.238 C12.097,22.771 11.284,25.433 12.12,27.847 C12.188,28.036 12.265,28.22 12.35,28.402 M15.729,36.561 C15.922,32.713 18.456,29.295 22.216,28.051 C24.139,27.416 26.153,27.416 27.99,27.985"/>
    <path d="M17.956,8.029 C17.284,7.724 16.514,7.633 15.758,7.781 C14.138,8.099 12.95,9.472 12.845,11.119 C12.788,12.123 13.134,13.064 13.763,13.764 C13.856,13.869 13.949,13.961 14.046,14.047 M28.917,12.555 C28.471,12.307 27.998,12.102 27.496,11.967 C27.489,11.96 27.481,11.969 27.475,11.961 C27.382,11.938 27.297,11.91 27.199,11.898 C24.719,11.352 22.158,12.47 20.871,14.675 C19.584,16.866 19.852,19.638 21.549,21.548 C21.685,21.696 21.825,21.837 21.975,21.972 M28.217,28.217 C26.923,24.588 27.955,20.461 30.954,17.873 C32.487,16.551 34.348,15.779 36.263,15.602"/>
    <path d="M19.355,1.006 C18.618,0.981 17.871,1.192 17.229,1.617 C15.854,2.531 15.283,4.254 15.815,5.816 C16.147,6.765 16.827,7.502 17.675,7.908 C17.801,7.971 17.922,8.019 18.045,8.06 M31.214,0.992 C30.707,0.933 30.192,0.926 29.676,0.992 C29.667,0.988 29.663,1 29.654,0.995 C29.559,1.01 29.47,1.016 29.375,1.043 C26.874,1.488 24.937,3.502 24.591,6.031 C24.24,8.549 25.55,11.006 27.848,12.121 C28.031,12.207 28.214,12.283 28.404,12.35 M36.561,15.729 C33.977,12.873 33.351,8.664 35.131,5.125 C36.041,3.316 37.465,1.892 39.166,0.995 M1,49.01 C2.58,44.651 6.75,41.67 11.49,41.6799499 C14.41,41.691 17.11,42.83 19.12,44.731 M19.372,45.355 C19.164,40.722 21.876,36.373 26.259,34.568 C28.961,33.461 31.892,33.48 34.476,34.466 M34.948,34.948 C32.982,30.748 33.823,25.691 37.181,22.347 C39.254,20.289 41.969,19.186 44.734,19.109 M45.355,19.373 C41.931,16.244 40.773,11.251 42.596,6.877 C43.724,4.182 45.81,2.123 48.334,0.994"/>
  </g>
</svg>
