<?xml version="1.0" encoding="iso-8859-1"?>
<!-- Generator: Adobe Illustrator 19.0.0, SVG Export Plug-In . SVG Version: 6.00 Build 0)  -->
<svg version="1.1" id="Capa_1" xmlns="http://www.w3.org/2000/svg" xmlns:xlink="http://www.w3.org/1999/xlink" x="0px" y="0px"
	 viewBox="0 0 480 480" style="enable-background:new 0 0 480 480;" xml:space="preserve">
<g>
	<g>
		<path d="M240,0C151.677,0.101,80.101,71.676,80,160c0,4.418,3.582,8,8,8h144v256.72c-23.066,3.919-39.957,23.883-40,47.28
			c0,4.418,3.582,8,8,8h80c4.418,0,8-3.582,8-8c-0.043-23.397-16.934-43.361-40-47.28V168h64v64h-8c-4.418,0-8,3.582-8,8v48
			c0,4.418,3.582,8,8,8h32c4.418,0,8-3.582,8-8v-48c0-4.418-3.582-8-8-8h-8v-64h64c4.418,0,8-3.582,8-8
			C399.899,71.676,328.324,0.101,240,0z M270.992,464h-61.984c4.401-17.116,21.844-27.424,38.96-23.024
			C259.266,443.881,268.087,452.703,270.992,464z M328,280h-16v-32h16V280z M96.216,152c4.354-79.41,72.259-140.254,151.668-135.9
			c73.325,4.021,131.879,62.574,135.9,135.9H96.216z"/>
	</g>
</g>
<g>
</g>
<g>
</g>
<g>
</g>
<g>
</g>
<g>
</g>
<g>
</g>
<g>
</g>
<g>
</g>
<g>
</g>
<g>
</g>
<g>
</g>
<g>
</g>
<g>
</g>
<g>
</g>
<g>
</g>
</svg>
