<svg xmlns="http://www.w3.org/2000/svg" width="48" height="46" viewBox="0 0 48 46">
  <g fill="#F54846" fill-rule="evenodd" transform="translate(.25 .622)">
    <path d="M2.64966064,32.9776695 C2.34966064,33.2776695 2.14966064,33.5776695 2.14966064,33.8776695 L0.0496606439,41.8776695 C-0.250339356,43.1776695 0.849660644,44.3776695 2.24966064,44.1776695 L10.3496606,42.6776695 C10.6496606,42.5776695 11.0496606,42.3776695 11.2496606,42.1776695 L13.5496606,39.9776695 L5.04966064,30.7776695 L2.64966064,32.9776695 Z"/>
    <polygon fill-rule="nonzero" points="8.45 27.478 16.95 36.678 38.05 16.778 29.55 7.678"/>
    <path fill-rule="nonzero" d="M45.7496606,6.97766953 L39.7496606,0.57766953 C39.0496606,-0.12233047 37.8496606,-0.22233047 37.0496606,0.47766953 L32.9496606,4.37766953 L41.4496606,13.4776695 L45.6496606,9.57766953 C46.3496606,8.97766953 46.4496606,7.77766953 45.7496606,6.97766953 Z"/>
  </g>
</svg>
