<?xml version="1.0" encoding="iso-8859-1"?>
<!-- Generator: Adobe Illustrator 19.0.0, SVG Export Plug-In . SVG Version: 6.00 Build 0)  -->
<svg version="1.1" id="Layer_1" xmlns="http://www.w3.org/2000/svg" xmlns:xlink="http://www.w3.org/1999/xlink" x="0px" y="0px"
	 viewBox="0 0 512 512" style="enable-background:new 0 0 512 512;" xml:space="preserve">
<g>
	<g>
		<g>
			<path d="M469.333,64H42.667C19.135,64,0,83.135,0,106.667v298.667C0,428.865,19.135,448,42.667,448h426.667
				C492.865,448,512,428.865,512,405.333V106.667C512,83.135,492.865,64,469.333,64z M490.667,405.333
				c0,11.76-9.573,21.333-21.333,21.333H42.667c-11.76,0-21.333-9.573-21.333-21.333V106.667c0-11.76,9.573-21.333,21.333-21.333
				h426.667c11.76,0,21.333,9.573,21.333,21.333V405.333z"/>
			<path d="M394.667,128h-320C68.771,128,64,132.771,64,138.667v234.667C64,379.229,68.771,384,74.667,384h320
				c5.896,0,10.667-4.771,10.667-10.667V138.667C405.333,132.771,400.563,128,394.667,128z M384,362.667H85.333V149.333H384V362.667
				z"/>
			<path d="M352,298.667c5.896,0,10.667-4.771,10.667-10.667v-85.333c0-5.896-4.771-10.667-10.667-10.667
				c-5.896,0-10.667,4.771-10.667,10.667V288C341.333,293.896,346.104,298.667,352,298.667z"/>
			<path d="M117.333,256c2.729,0,5.458-1.042,7.542-3.125l42.667-42.667c4.167-4.167,4.167-10.917,0-15.083
				c-4.167-4.167-10.917-4.167-15.083,0l-42.667,42.667c-4.167,4.167-4.167,10.917,0,15.083
				C111.875,254.958,114.604,256,117.333,256z"/>
			<path d="M152.458,274.208c2.083,2.083,4.813,3.125,7.542,3.125s5.458-1.042,7.542-3.125l21.333-21.333
				c4.167-4.167,4.167-10.917,0-15.083c-4.167-4.167-10.917-4.167-15.083,0l-21.333,21.333
				C148.292,263.292,148.292,270.042,152.458,274.208z"/>
			<circle cx="448" cy="170.667" r="21.333"/>
			<circle cx="448" cy="234.667" r="21.333"/>
			<circle cx="448" cy="298.667" r="21.333"/>
			<path d="M458.667,341.333h-21.333c-5.896,0-10.667,4.771-10.667,10.667c0,5.896,4.771,10.667,10.667,10.667h21.333
				c5.896,0,10.667-4.771,10.667-10.667C469.333,346.104,464.563,341.333,458.667,341.333z"/>
		</g>
	</g>
</g>
<g>
</g>
<g>
</g>
<g>
</g>
<g>
</g>
<g>
</g>
<g>
</g>
<g>
</g>
<g>
</g>
<g>
</g>
<g>
</g>
<g>
</g>
<g>
</g>
<g>
</g>
<g>
</g>
<g>
</g>
</svg>
