<?xml version="1.0"?>
<svg xmlns="http://www.w3.org/2000/svg" viewBox="0 0 64 64" width="512" height="512"><g id="Music_System" data-name="Music System"><path d="M25,18H5a3,3,0,0,0-3,3V59a3,3,0,0,0,3,3H25a3,3,0,0,0,3-3V21A3,3,0,0,0,25,18Zm-5.281,2-.5,2H10.781l-.5-2ZM26,59a1,1,0,0,1-1,1H5a1,1,0,0,1-1-1V21a1,1,0,0,1,1-1H8.22l.81,3.242A1,1,0,0,0,10,24H20a1,1,0,0,0,.97-.758L21.78,20H25a1,1,0,0,1,1,1Z"/><path d="M59,2H35a3,3,0,0,0-3,3V59a3,3,0,0,0,3,3H59a3,3,0,0,0,3-3V5A3,3,0,0,0,59,2Zm1,57a1,1,0,0,1-1,1H35a1,1,0,0,1-1-1V5a1,1,0,0,1,1-1H59a1,1,0,0,1,1,1Z"/><path d="M15,4a9.01,9.01,0,0,1,9,9h2A11,11,0,0,0,4,13H6A9.01,9.01,0,0,1,15,4Z"/><path d="M20,13h2A7,7,0,0,0,8,13h2a5,5,0,0,1,10,0Z"/><path d="M12,13a3,3,0,1,0,3-3A3,3,0,0,0,12,13Zm4,0a1,1,0,1,1-1-1A1,1,0,0,1,16,13Z"/><path d="M47,24a9,9,0,1,0-9-9A9.01,9.01,0,0,0,47,24ZM47,8a7,7,0,1,1-7,7A7.009,7.009,0,0,1,47,8Z"/><path d="M47,28A11,11,0,1,0,58,39,11.013,11.013,0,0,0,47,28Zm0,20a9,9,0,1,1,9-9A9.01,9.01,0,0,1,47,48Z"/><path d="M47,32v2a5.006,5.006,0,0,1,5,5h2A7.009,7.009,0,0,0,47,32Z"/><path d="M47,36a3,3,0,1,0,3,3A3,3,0,0,0,47,36Zm0,4a1,1,0,1,1,1-1A1,1,0,0,1,47,40Z"/><path d="M47,18a3,3,0,1,0-3-3A3,3,0,0,0,47,18Zm0-4a1,1,0,1,1-1,1A1,1,0,0,1,47,14Z"/><path d="M57,52H37a1,1,0,0,0-1,1v4a1,1,0,0,0,1,1H57a1,1,0,0,0,1-1V53A1,1,0,0,0,57,52Zm-1,4H38V54H56Z"/><path d="M18.758,32.03l-8,2A1,1,0,0,0,10,35v7.184A2.966,2.966,0,0,0,9,42a3,3,0,1,0,3,3V39.78l6-1.5v1.9A2.966,2.966,0,0,0,17,40a3,3,0,1,0,3,3V33a1,1,0,0,0-1.242-.97ZM9,46a1,1,0,1,1,1-1A1,1,0,0,1,9,46Zm3-8.28V35.781l6-1.5V36.22ZM17,44a1,1,0,1,1,1-1A1,1,0,0,1,17,44Z"/></g></svg>
