<?xml version="1.0" encoding="iso-8859-1"?>
<!-- Generator: Adobe Illustrator 19.0.0, SVG Export Plug-In . SVG Version: 6.00 Build 0)  -->
<svg version="1.1" id="Capa_1" xmlns="http://www.w3.org/2000/svg" xmlns:xlink="http://www.w3.org/1999/xlink" x="0px" y="0px"
	 viewBox="0 0 480 480" style="enable-background:new 0 0 480 480;" xml:space="preserve">
<g>
	<g>
		<g>
			<path d="M185.896,391.6c4.197,1.396,8.732-0.875,10.128-5.072l26.664-80c1.393-4.193-0.877-8.721-5.07-10.114
				c-0.006-0.002-0.012-0.004-0.018-0.006c-4.191-1.392-8.717,0.875-10.112,5.064l-26.664,80
				C179.428,385.669,181.699,390.204,185.896,391.6z"/>
			<path d="M376,0H104c-4.418,0-8,3.582-8,8s3.582,8,8,8h128v192c-26.499,0.026-47.974,21.501-48,48v14.712l-47.584,142.76
				c-1.396,4.192,0.87,8.722,5.062,10.118c0.813,0.271,1.665,0.409,2.522,0.41h56v16c0,22.091,17.909,40,40,40
				c22.091,0,40-17.909,40-40v-16h56c4.418-0.003,7.997-3.588,7.994-8.006c-0.001-0.857-0.139-1.709-0.41-2.522L296,270.712V256
				c-0.026-26.499-21.501-47.974-48-48V16h128c4.418,0,8-3.582,8-8S380.418,0,376,0z M264,440c0,13.255-10.745,24-24,24
				s-24-10.745-24-24v-16h48V440z M282.232,280l42.664,128H155.104l42.664-128H282.232z M280,256v8h-80v-8c0-17.673,14.327-32,32-32
				h16C265.673,224,280,238.327,280,256z"/>
		</g>
	</g>
</g>
<g>
</g>
<g>
</g>
<g>
</g>
<g>
</g>
<g>
</g>
<g>
</g>
<g>
</g>
<g>
</g>
<g>
</g>
<g>
</g>
<g>
</g>
<g>
</g>
<g>
</g>
<g>
</g>
<g>
</g>
</svg>
