<svg xmlns="http://www.w3.org/2000/svg" width="42" height="42" viewBox="0 0 42 42">
  <defs>
    <linearGradient id="logo-42-a" x1="23.56%" x2="75.148%" y1="76.44%" y2="24.852%">
      <stop offset="0%" stop-color="#248DCE"/>
      <stop offset="100%" stop-color="#248DCE" stop-opacity="0"/>
    </linearGradient>
    <linearGradient id="logo-42-b" x1="23.56%" x2="75.148%" y1="76.44%" y2="24.852%">
      <stop offset="0%" stop-color="#047A5B"/>
      <stop offset="100%" stop-color="#049B61" stop-opacity="0"/>
    </linearGradient>
    <linearGradient id="logo-42-c" x1="74.166%" x2="27.536%" y1="25.939%" y2="72.366%">
      <stop offset="0%" stop-color="#248DCE"/>
      <stop offset="100%" stop-color="#248DCE" stop-opacity="0"/>
    </linearGradient>
    <linearGradient id="logo-42-d" x1="25.084%" x2="73.311%" y1="25%" y2="73.39%">
      <stop offset="0%" stop-color="#248DCE"/>
      <stop offset="100%" stop-color="#248DCE" stop-opacity="0"/>
    </linearGradient>
    <linearGradient id="logo-42-e" x1="72.255%" x2="25.086%" y1="72.628%" y2="24.669%">
      <stop offset="0%" stop-color="#248DCE"/>
      <stop offset="100%" stop-color="#248DCE" stop-opacity="0"/>
    </linearGradient>
  </defs>
  <g fill="none">
    <polygon fill="#E8F6FF" points="7.004 7.354 34.877 7.354 34.877 35.227 7.004 35.227" transform="rotate(45 20.94 21.29)"/>
    <polygon fill="#2E98E8" points="10.236 -3.437 12.567 -3.437 12.567 26.125 10.236 26.125" transform="rotate(45 11.401 11.344)"/>
    <polygon fill="#2E98E8" points="10.187 15.867 12.518 15.867 12.518 45.432 10.187 45.432" transform="rotate(135 11.353 30.65)"/>
    <polygon fill="#2E98E8" points="29.467 15.814 31.797 15.814 31.797 45.441 29.467 45.441" transform="rotate(-135 30.632 30.628)"/>
    <polygon fill="#02A365" points="23.847 12.84 26.178 12.84 26.178 23.533 23.847 23.533" transform="rotate(45 25.013 18.186)"/>
    <polygon fill="#00AF73" points="23.847 18.743 26.177 18.743 26.177 29.436 23.847 29.436" transform="rotate(135 25.012 24.09)"/>
    <polygon fill="#00AF73" points="13.647 19.027 15.977 19.027 15.977 27.7 13.647 27.7" transform="rotate(90 14.812 23.364)"/>
    <polygon fill="#2E98E8" points="30.313 -1.446 32.644 -1.446 32.644 25.785 30.313 25.785" transform="rotate(-45 31.479 12.17)"/>
    <polygon fill="url(#logo-42-a)" points="3.366 21.027 1.718 19.379 4.129 16.968 5.777 18.616"/>
    <polygon fill="url(#logo-42-b)" points="23.713 21.134 22.065 19.486 24.476 17.075 26.124 18.723"/>
    <polygon fill="url(#logo-42-c)" points="37.872 25.036 36.224 23.388 38.635 20.977 40.283 22.625"/>
    <polygon fill="url(#logo-42-d)" points="25.085 4.125 23.437 5.773 21.026 3.361 22.673 1.713"/>
    <polygon fill="url(#logo-42-e)" points="20.981 38.63 19.333 40.278 16.921 37.866 18.569 36.218"/>
  </g>
</svg>
