<svg xmlns="http://www.w3.org/2000/svg" width="100" height="21" viewBox="0 0 100 21">
  <g fill="none">
    <path fill="#333" d="M34.8914573,17.098995 L34.8323417,15.4903518 C34.8008131,14.608191 34.7325025,12.5542211 34.7325025,12.5542211 C34.6930915,11.2871357 34.4329799,10.3419598 33.1725025,10.000402 L33.1725025,9.93996985 C34.2326533,9.51761307 34.9722513,8.33067337 34.9722513,6.72273367 C34.9722513,4.1879598 33.772201,3.02203015 31.4515477,3.02203015 L27.891397,3.02203015 L27.891397,17.098995 L30.1713467,17.098995 L30.1713467,11.3074573 L31.2715477,11.3074573 C32.1714472,11.3074573 32.492,11.8506734 32.5116985,12.7952462 L32.5924925,15.6919799 C32.603936,16.1608904 32.6100671,16.6299154 32.6108844,17.098995 L34.8914874,17.098995 L34.8914573,17.098995 Z M32.6319095,7.84874372 C32.612204,8.67311558 32.3323869,9.5381407 31.2518593,9.5381407 L30.1707035,9.5381407 L30.1707035,5.07351759 L31.2709045,5.07351759 C32.2916583,5.07351759 32.6713065,5.97864322 32.651608,6.74256281 L32.6319025,7.84869347 L32.6319095,7.84874372 Z M99.8731156,17.098995 L99.8731156,15.0075879 L96.2125126,15.0075879 L96.2125126,10.8247739 L99.1933166,10.8247739 L99.1933166,8.73336683 L96.2125126,8.73336683 L96.2125126,5.11346734 L99.8738191,5.11346734 L99.8738191,3.0220603 L93.9321106,3.0220603 L93.9321106,17.098995 L99.8738191,17.098995 L99.8731623,17.098995 L99.8731156,17.098995 Z M92.6062814,17.0990452 L92.6062814,15.0075879 L88.9449749,15.0075879 L88.9449749,3.0221608 L86.6643719,3.0221608 L86.6643719,17.0990452 L92.6060804,17.0990452 L92.6062814,17.0990452 Z M82.1741206,17.098995 C83.8352764,17.098995 85.2751256,15.8923618 85.2751256,13.0974874 C85.2751256,11.4481407 84.4553769,10.3019095 83.3544724,9.91964824 L83.3544724,9.84017085 C84.4954271,9.35738693 85.1956281,8.19147739 85.1956281,6.64263317 C85.1956281,4.02836181 83.9147739,3.02273367 81.9744221,3.02273367 L78.1134673,3.02273367 L78.1134673,17.0996181 L82.1741206,17.0996181 L82.1741206,17.0989613 L82.1741206,17.098995 Z M82.8145729,7.52663317 C82.7948673,8.53160804 82.1340704,8.99467337 81.5337186,8.99467337 L80.3737186,8.99467337 L80.3737186,5.07326633 L81.4943216,5.07326633 C82.4546231,5.07326633 82.8540201,5.53568844 82.8343216,6.66150754 L82.8146161,7.52658291 L82.8145729,7.52663317 Z M82.9347739,13.3582915 C82.9347739,14.4847739 82.4749799,15.0680905 81.4739196,15.0680905 L80.3737186,15.0680905 L80.3737186,10.8445226 L81.4141709,10.8445226 C82.3744724,10.8445226 82.9347739,11.5289447 82.9347739,12.4538191 L82.9347739,13.3582915 L82.9347739,13.3582915 Z M73.6151759,17.0990452 C75.2756784,17.0990452 76.7155276,15.8924121 76.7155276,13.0975377 C76.7155276,11.448191 75.8957789,10.3019598 74.7955779,9.91969849 L74.7955779,9.84022111 C75.9358794,9.35743719 76.6360804,8.19152764 76.6360804,6.64268342 C76.6360804,4.02841206 75.3552261,3.02278392 73.4148744,3.02278392 L69.5539196,3.02278392 L69.5539196,17.0996683 L73.6152261,17.0996683 L73.6152261,17.0990116 L73.6151759,17.0990452 Z M74.2556281,7.52668342 C74.2352658,8.53165829 73.5751256,8.99472362 72.9747739,8.99472362 L71.8147739,8.99472362 L71.8147739,5.07331658 L72.9347236,5.07331658 C73.8950251,5.07331658 74.2950754,5.53573869 74.2747236,6.66155779 L74.2550181,7.52663317 L74.2556749,7.52663317 L74.2556281,7.52668342 Z M74.3751759,13.3583417 C74.3751759,14.4848241 73.9153819,15.0681407 72.9149749,15.0681407 L71.8147739,15.0681407 L71.8147739,10.8445729 L72.8545729,10.8445729 C73.8148744,10.8445729 74.3751759,11.528995 74.3751759,12.4538693 L74.3751759,13.3583417 L74.3751759,13.3583417 Z M64.4726633,17.3612131 C66.8931658,17.3612131 67.9329648,15.7722613 67.9329648,13.5803518 L67.9329648,3.0220603 L65.7725628,3.0220603 L65.7725628,13.5190452 C65.7725628,14.4044724 65.5525176,15.2892462 64.5324121,15.2892462 C63.4519095,15.2892462 63.2515578,14.2632663 63.2515578,13.5597487 L63.2515578,3.0220603 L60.9709548,3.0220603 L60.9709548,13.7406533 C60.9709548,16.1742714 62.251809,17.3598995 64.4719598,17.3598995 L64.4726166,17.3612131 L64.4726633,17.3612131 Z M56.6299497,17.0997789 C58.2904523,17.0997789 59.7309548,15.8931457 59.7309548,13.0982714 C59.7309548,11.4489246 58.9105528,10.3026935 57.8103015,9.92043216 L57.8103015,9.84029648 C58.950603,9.35751256 59.650804,8.19160302 59.650804,6.64275879 C59.650804,4.02848744 58.3699497,3.0228593 56.4302513,3.0228593 L52.5686432,3.0228593 L52.5686432,17.0997789 L56.6299497,17.0997789 L56.6299497,17.0997789 Z M57.270402,7.52741709 C57.2506965,8.53239196 56.5898995,8.99545729 55.9895477,8.99545729 L54.8295477,8.99545729 L54.8295477,5.07405025 L55.9494975,5.07405025 C56.909799,5.07405025 57.3105025,5.53647236 57.2901508,6.66229146 L57.2704452,7.52736683 L57.270402,7.52741709 Z M57.3899497,13.3590754 C57.3899497,14.4855578 56.9301558,15.0688744 55.9297487,15.0688744 L54.8295477,15.0688744 L54.8295477,10.8453065 L55.87,10.8453065 C56.8303015,10.8453065 57.3899497,11.5297286 57.3899497,12.454603 L57.3899497,13.3590754 L57.3899497,13.3590754 Z M47.6673367,17.0998291 C49.7475879,17.0998291 50.9082412,16.0140503 50.9082412,13.7216382 L50.9082412,6.31962814 C50.9082412,4.08701508 49.7278894,3.02158794 47.6069347,3.02158794 L43.8661809,3.02158794 L43.8661809,17.0984724 L47.6673869,17.0984724 L47.6673869,17.0998291 L47.6673367,17.0998291 Z M48.6072864,13.6211357 C48.6072864,14.5059095 48.3274673,15.0281206 47.2068844,15.0281206 L46.1467337,15.0281206 L46.1467337,5.09344724 L47.2272362,5.09344724 C48.3471859,5.09344724 48.6276382,5.75686432 48.6276382,6.50108543 L48.6079327,13.6206834 L48.6072759,13.6213402 L48.6072864,13.6211357 Z M36.4635678,17.0985226 L36.4635678,3.0221407 L42.4052764,3.0221407 L42.4052764,5.11354774 L38.7439698,5.11354774 L38.7439698,8.73279397 L41.7247739,8.73279397 L41.7247739,10.8255075 L38.7439698,10.8255075 L38.7439698,15.0083216 L42.4052764,15.0083216 L42.4052764,17.0997286 L36.4635678,17.0997286 L36.4635678,17.0984151 L36.4635678,17.0985226 Z"/>
    <path fill="#E41321" d="M14.3824121,13.6809045 L11.7050754,13.6809045 C11.5567041,13.6805414 11.4367192,13.5599693 11.4370796,13.411598 L11.4370796,6.692 C11.4370796,6.54355276 11.5572814,6.42334673 11.7050754,6.42334673 L14.1873367,6.42334673 C16.0501508,6.42334673 16.441005,7.52028141 16.441005,8.4398794 C16.441005,8.9719397 16.2997839,9.39430151 16.0193065,9.70430151 C16.7024221,9.98609045 17.0702613,10.6212864 17.0702613,11.5401809 C17.0702613,12.8808342 16.0652864,13.6809045 14.3824221,13.6809045 M10.4951859,13.6808342 L4.93438191,13.6808342 C4.86319155,13.6806602 4.79499583,13.652168 4.74484161,13.6016442 C4.69468739,13.5511204 4.66669661,13.4827174 4.66704201,13.4115276 L4.66704201,6.69192965 C4.66704201,6.54348241 4.78659296,6.42327638 4.93438191,6.42327638 L7.53222111,6.42327638 C9.15463317,6.42327638 10.1228241,7.29689447 10.1228241,8.76036181 C10.1228241,9.73382915 9.63347236,10.498402 8.84458291,10.8090553 L10.6949347,13.2334774 C10.764255,13.3126832 10.7810776,13.4250154 10.7380012,13.5210534 C10.6949248,13.6170915 10.5998453,13.6792317 10.494593,13.6801357 M10.5044457,0.0178241206 C4.95821457,0.0178241206 0.461229648,4.51460804 0.461229648,10.0610402 C0.461229648,15.6087789 4.95801357,20.1057638 10.5049482,20.1057638 C16.0518829,20.1057638 20.5481643,15.6089799 20.5481643,10.0620452 C20.5481643,4.51511055 16.0526869,0.0188291457 10.5054508,0.0188291457"/>
  </g>
</svg>
